<svg xmlns="http://www.w3.org/2000/svg" xmlns:svg="http://www.w3.org/2000/svg" xmlns:xlink="http://www.w3.org/1999/xlink" id="svg11300" width="15.76" height="16" version="1.0" viewBox="0 0 15.76 16" style="display:inline;enable-background:new"><title id="title4162">Adwaita Icon Template</title><defs id="defs3"><linearGradient id="linearGradient1099" x1="32" x2="96" y1="236" y2="236" gradientTransform="translate(604.81684,170.58641)" gradientUnits="userSpaceOnUse" xlink:href="#linearGradient1036"/><linearGradient id="linearGradient1036"><stop id="stop1032" offset="0" style="stop-color:#d5d3cf;stop-opacity:1"/><stop id="stop1034" offset="1" style="stop-color:#f6f5f4;stop-opacity:1"/></linearGradient><radialGradient id="radialGradient1103" cx="-244" cy="-76" r="32" fx="-244" fy="-76" gradientTransform="matrix(0.88333331,0,0,0.88333331,-460.35018,463.11973)" gradientUnits="userSpaceOnUse" xlink:href="#linearGradient1069"/><linearGradient id="linearGradient1069"><stop id="stop1065" offset="0" style="stop-color:#d5d3cf;stop-opacity:1"/><stop id="stop1067-1" offset="1" style="stop-color:#949390;stop-opacity:1"/></linearGradient><linearGradient id="linearGradient1027" x1="64" x2="64" y1="262.5" y2="232" gradientTransform="translate(-470.5864,432.81685)" gradientUnits="userSpaceOnUse" xlink:href="#linearGradient1025"/><linearGradient id="linearGradient1025"><stop id="stop1021" offset="0" style="stop-color:#9a9996;stop-opacity:1"/><stop id="stop1023" offset="1" style="stop-color:#77767b;stop-opacity:1"/></linearGradient><clipPath id="clipPath1609-7" clipPathUnits="userSpaceOnUse"><path id="path1611-5" d="m 252,116 28,-28 v -8 h -36 v 36 z" style="fill:#e74747;stroke:none;stroke-width:.25px;stroke-linecap:butt;stroke-linejoin:miter;stroke-opacity:1"/></clipPath><clipPath id="clipPath1493" clipPathUnits="userSpaceOnUse"><path id="lpe_path-effect1497" d="m 155,167 h 20 v 26 h -20 z m 7.00011,16 a 1,1 0 0 0 -1,1 v 1.88591 a 1,1 0 0 0 1,1 h 6 a 1,1 0 0 0 1,-1 V 184 a 1,1 0 0 0 -1,-1 z" class="powerclip" style="fill:#9a9996;stroke:#000;stroke-width:0;stroke-linecap:round;stroke-linejoin:round;stroke-miterlimit:18.2;paint-order:markers fill stroke"/></clipPath><clipPath id="clipPath10840" clipPathUnits="userSpaceOnUse"><path id="path10842" d="m 163.2,183.8 h 6 a 1,1 0 0 1 1,1 v 1.2 a 1,1 0 0 1 -1,1 h -6 a 1,1 0 0 1 -1,-1 v -1.2 a 1,1 0 0 1 1,-1 z" style="display:none;fill:#9a9996;fill-opacity:1;stroke:#000;stroke-width:0;stroke-linecap:round;stroke-linejoin:round;stroke-miterlimit:18.2;paint-order:markers fill stroke"/><path id="lpe_path-effect10844" d="m 156.2,167 h 20 v 26 h -20 z m 7,16.8 a 1,1 0 0 0 -1,1 v 1.2 a 1,1 0 0 0 1,1 h 6 a 1,1 0 0 0 1,-1 v -1.2 a 1,1 0 0 0 -1,-1 z" class="powerclip" style="fill:#9a9996;fill-opacity:1;stroke:#000;stroke-width:0;stroke-linecap:round;stroke-linejoin:round;stroke-miterlimit:18.2;paint-order:markers fill stroke"/></clipPath></defs><metadata id="metadata4"/><g id="layer1" transform="translate(-160.1,-172)" style="display:inline"><g id="layer9" style="display:inline"><g id="layer4"><path style="fill:#c0bfbc;stroke:#000;stroke-width:0;stroke-linecap:round;stroke-linejoin:round;stroke-miterlimit:18.2;paint-order:markers fill stroke" id="rect985" d="m 163.2,172 h 6 c 1.10457,0 2,0.89543 2,2 v 12 c 0,1.10457 -0.89543,2 -2,2 h -6 c -1.10457,0 -2,-0.89543 -2,-2 v -12 c 0,-1.10457 0.89543,-2 2,-2 z" clip-path="url(#clipPath10840)" transform="translate(-1.0999995)"/><path style="fill:#c0bfbc;stroke:#000;stroke-width:0;stroke-linecap:round;stroke-linejoin:round;stroke-miterlimit:18.2;paint-order:markers fill stroke" id="path4758" d="m 169.36009,172 h 1.59954 c 1.10457,0 2,0.89543 2,2 v 12 c 0,1.10457 -0.89543,2 -2,2 h -1.59954 c -0.43119,0 1.59954,0 1.59954,-2 v -12 c 0,-2 -1.85748,-2 -1.59954,-2 z"/><path style="fill:#c0bfbc;stroke:#000;stroke-width:0;stroke-linecap:round;stroke-linejoin:round;stroke-miterlimit:18.2;paint-order:markers fill stroke" id="path10947" d="m 172.26009,172 h 1.59954 c 1.10457,0 2,0.89543 2,2 v 12 c 0,1.10457 -0.89543,2 -2,2 h -1.59954 c -0.43119,0 1.59954,0 1.59954,-2 v -12 c 0,-2 -1.85748,-2 -1.59954,-2 z"/></g></g></g></svg>