<svg xmlns="http://www.w3.org/2000/svg" xmlns:svg="http://www.w3.org/2000/svg" xmlns:xlink="http://www.w3.org/1999/xlink" id="svg11300" width="128" height="128" version="1.0" viewBox="0 0 128 128" style="display:inline;enable-background:new"><title id="title4162">Adwaita Icon Template</title><defs id="defs3"><linearGradient id="linearGradient7555"><stop style="stop-color:#000;stop-opacity:1" id="stop7551" offset="0"/><stop style="stop-color:#000;stop-opacity:0" id="stop7553" offset="1"/></linearGradient><linearGradient id="linearGradient1099" x1="32" x2="96" y1="236" y2="236" gradientTransform="translate(604.81684,170.58641)" gradientUnits="userSpaceOnUse" xlink:href="#linearGradient1036"/><linearGradient id="linearGradient1036"><stop id="stop1032" offset="0" style="stop-color:#d5d3cf;stop-opacity:1"/><stop id="stop1034" offset="1" style="stop-color:#f6f5f4;stop-opacity:1"/></linearGradient><radialGradient id="radialGradient1103" cx="-244" cy="-76" r="32" fx="-244" fy="-76" gradientTransform="matrix(0.88333331,0,0,0.88333331,-460.35018,463.11973)" gradientUnits="userSpaceOnUse" xlink:href="#linearGradient1069"/><linearGradient id="linearGradient1069"><stop id="stop1065" offset="0" style="stop-color:#d5d3cf;stop-opacity:1"/><stop id="stop1067-1" offset="1" style="stop-color:#949390;stop-opacity:1"/></linearGradient><linearGradient id="linearGradient1027" x1="64" x2="64" y1="262.5" y2="232" gradientTransform="translate(-470.5864,432.81685)" gradientUnits="userSpaceOnUse" xlink:href="#linearGradient1025"/><linearGradient id="linearGradient1025"><stop id="stop1021" offset="0" style="stop-color:#9a9996;stop-opacity:1"/><stop id="stop1023" offset="1" style="stop-color:#77767b;stop-opacity:1"/></linearGradient><clipPath id="clipPath1609-7" clipPathUnits="userSpaceOnUse"><path id="path1611-5" d="m 252,116 28,-28 v -8 h -36 v 36 z" style="fill:#e74747;stroke:none;stroke-width:.25px;stroke-linecap:butt;stroke-linejoin:miter;stroke-opacity:1"/></clipPath><linearGradient id="linearGradient7557" x1="38" x2="68" y1="242" y2="242" gradientTransform="matrix(1,0,0,0.826087,3.9999993,42.086949)" gradientUnits="userSpaceOnUse" xlink:href="#linearGradient7555"/><radialGradient id="radialGradient8401" cx="43" cy="229" r="29" fx="43" fy="229" gradientTransform="matrix(1,0,0,0.41379345,0,109.24131)" gradientUnits="userSpaceOnUse" xlink:href="#linearGradient7555"/><radialGradient id="radialGradient8781" cx="43" cy="209.667" r="29" fx="43" fy="209.667" gradientTransform="matrix(-1,0,0,-0.41379242,86,366.7584)" gradientUnits="userSpaceOnUse" xlink:href="#linearGradient7555"/><radialGradient id="radialGradient9242" cx="43" cy="209.667" r="29" fx="43" fy="209.667" gradientTransform="matrix(-1,0,0,-0.41379242,86,366.7584)" gradientUnits="userSpaceOnUse" xlink:href="#linearGradient7555"/><linearGradient id="linearGradient9244" x1="38" x2="68" y1="242" y2="242" gradientTransform="matrix(1,0,0,0.826087,3.9999993,42.086949)" gradientUnits="userSpaceOnUse" xlink:href="#linearGradient7555"/><radialGradient id="radialGradient9246" cx="43" cy="229" r="29" fx="43" fy="229" gradientTransform="matrix(1,0,0,0.41379345,0,109.24131)" gradientUnits="userSpaceOnUse" xlink:href="#linearGradient7555"/></defs><metadata id="metadata4"/><g id="layer1" transform="translate(0,-172)" style="display:inline"><g id="g6436"><rect style="display:inline;fill:#000;fill-opacity:1;fill-rule:nonzero;stroke:none;stroke-width:0;stroke-linecap:round;stroke-linejoin:round;stroke-miterlimit:18.2;stroke-dasharray:none;stroke-dashoffset:0;stroke-opacity:1;paint-order:markers fill stroke;enable-background:new" id="rect4981" width="2" height="10" x="95" y="269.5"/><rect style="display:inline;fill:#000;fill-opacity:1;fill-rule:nonzero;stroke:none;stroke-width:0;stroke-linecap:round;stroke-linejoin:round;stroke-miterlimit:18.2;stroke-dasharray:none;stroke-dashoffset:0;stroke-opacity:1;paint-order:markers fill stroke;enable-background:new" id="rect4983" width="4" height="10" x="99" y="269.5"/><rect style="display:inline;fill:#000;fill-opacity:1;fill-rule:nonzero;stroke:none;stroke-width:0;stroke-linecap:round;stroke-linejoin:round;stroke-miterlimit:18.2;stroke-dasharray:none;stroke-dashoffset:0;stroke-opacity:1;paint-order:markers fill stroke;enable-background:new" id="rect4985" width="4" height="10" x="105" y="269.5"/><rect style="display:inline;fill:#000;fill-opacity:1;fill-rule:nonzero;stroke:none;stroke-width:0;stroke-linecap:round;stroke-linejoin:round;stroke-miterlimit:18.2;stroke-dasharray:none;stroke-dashoffset:0;stroke-opacity:1;paint-order:markers fill stroke;enable-background:new" id="rect4987" width="2" height="10" x="113" y="269.5"/><path style="opacity:1;fill:#9141ac;fill-opacity:1;fill-rule:nonzero;stroke:none;stroke-width:0;stroke-linecap:round;stroke-linejoin:round;stroke-miterlimit:18.2;stroke-dasharray:none;stroke-dashoffset:0;stroke-opacity:1;paint-order:markers fill stroke" id="path4989" width="58" height="92" x="58" y="196" d="m 66,196 h 42 a 8,8 45 0 1 8,8 v 76.00001 a 8,8 135 0 1 -8,8 H 66 a 8,8 45 0 1 -8,-8 V 204 a 8,8 135 0 1 8,-8 z"/><path style="opacity:1;fill:#fff;fill-opacity:1;fill-rule:nonzero;stroke:none;stroke-width:0;stroke-linecap:round;stroke-linejoin:round;stroke-miterlimit:18.2;stroke-dasharray:none;stroke-dashoffset:0;stroke-opacity:1;paint-order:markers fill stroke" id="path4995" width="40" height="11" x="67" y="269" d="m 69,269 h 36 a 2,2 45 0 1 2,2 l 0,7 a 2,2 135 0 1 -2,2 H 69 a 2,2 45 0 1 -2,-2 v -7 a 2,2 135 0 1 2,-2 z"/><rect style="display:inline;fill:#000;fill-opacity:1;fill-rule:nonzero;stroke:none;stroke-width:0;stroke-linecap:round;stroke-linejoin:round;stroke-miterlimit:18.2;stroke-dasharray:none;stroke-dashoffset:0;stroke-opacity:1;paint-order:markers fill stroke;enable-background:new" id="rect5001" width="2" height="10" x="70" y="269.5"/><rect style="display:inline;fill:#000;fill-opacity:1;fill-rule:nonzero;stroke:none;stroke-width:0;stroke-linecap:round;stroke-linejoin:round;stroke-miterlimit:18.2;stroke-dasharray:none;stroke-dashoffset:0;stroke-opacity:1;paint-order:markers fill stroke;enable-background:new" id="rect5003" width="4" height="10" x="74" y="269.5"/><rect style="display:inline;fill:#000;fill-opacity:1;fill-rule:nonzero;stroke:none;stroke-width:0;stroke-linecap:round;stroke-linejoin:round;stroke-miterlimit:18.2;stroke-dasharray:none;stroke-dashoffset:0;stroke-opacity:1;paint-order:markers fill stroke;enable-background:new" id="rect5005" width="4" height="10" x="80" y="269.5"/><rect style="display:inline;fill:#000;fill-opacity:1;fill-rule:nonzero;stroke:none;stroke-width:0;stroke-linecap:round;stroke-linejoin:round;stroke-miterlimit:18.2;stroke-dasharray:none;stroke-dashoffset:0;stroke-opacity:1;paint-order:markers fill stroke;enable-background:new" id="rect5007" width="2" height="10" x="88" y="269.5"/><rect style="display:inline;fill:#000;fill-opacity:1;fill-rule:nonzero;stroke:none;stroke-width:0;stroke-linecap:round;stroke-linejoin:round;stroke-miterlimit:18.2;stroke-dasharray:none;stroke-dashoffset:0;stroke-opacity:1;paint-order:markers fill stroke;enable-background:new" id="rect5009" width="2" height="10" x="98" y="269.5"/><rect style="display:inline;fill:#000;fill-opacity:1;fill-rule:nonzero;stroke:none;stroke-width:0;stroke-linecap:round;stroke-linejoin:round;stroke-miterlimit:18.2;stroke-dasharray:none;stroke-dashoffset:0;stroke-opacity:1;paint-order:markers fill stroke;enable-background:new" id="rect5011" width="2" height="10" x="102" y="269.5"/><rect style="display:inline;fill:#000;fill-opacity:1;fill-rule:nonzero;stroke:none;stroke-width:0;stroke-linecap:round;stroke-linejoin:round;stroke-miterlimit:18.2;stroke-dasharray:none;stroke-dashoffset:0;stroke-opacity:1;paint-order:markers fill stroke;enable-background:new" id="rect5013" width="4" height="10" x="92" y="269.5"/><path style="opacity:1;fill:#c061cb;fill-opacity:1;fill-rule:nonzero;stroke:none;stroke-width:0;stroke-linecap:round;stroke-linejoin:round;stroke-miterlimit:18.2;stroke-dasharray:none;stroke-dashoffset:0;stroke-opacity:1;paint-order:markers fill stroke" id="path5015" width="48" height="11" x="63" y="201" d="m 65,201 h 44 a 2,2 45 0 1 2,2 v 7 a 2,2 135 0 1 -2,2 l -44,0 a 2,2 45 0 1 -2,-2 l 0,-7 a 2,2 135 0 1 2,-2 z"/><path style="opacity:1;fill:#c061cb;fill-opacity:1;fill-rule:nonzero;stroke:none;stroke-width:0;stroke-linecap:round;stroke-linejoin:round;stroke-miterlimit:18.2;stroke-dasharray:none;stroke-dashoffset:0;stroke-opacity:1;paint-order:markers fill stroke" id="path5027" width="31.369" height="22" x="79.631" y="215" d="M 81.63089,215 H 109 a 2,2 45 0 1 2,2 v 18 a 2,2 135 0 1 -2,2 H 81.63089 a 2,2 45 0 1 -2,-2 l 0,-18 a 2,2 135 0 1 2,-2 z"/><path style="opacity:1;fill:#c061cb;fill-opacity:1;fill-rule:nonzero;stroke:none;stroke-width:0;stroke-linecap:round;stroke-linejoin:round;stroke-miterlimit:18.2;stroke-dasharray:none;stroke-dashoffset:0;stroke-opacity:1;paint-order:markers fill stroke" id="path5033" width="48" height="22" x="63" y="240" d="m 65,240 h 44 a 2,2 45 0 1 2,2 v 18 a 2,2 135 0 1 -2,2 H 65 a 2,2 45 0 1 -2,-2 v -18 a 2,2 135 0 1 2,-2 z"/></g><g id="g9160" transform="translate(24)"><path style="display:inline;opacity:1;fill:url(#radialGradient9242);fill-opacity:1;fill-rule:nonzero;stroke:#000;stroke-width:0;stroke-linecap:round;stroke-linejoin:round;stroke-miterlimit:18.2;stroke-dasharray:none;stroke-dashoffset:0;stroke-opacity:1;paint-order:markers fill stroke" id="path9154" width="58" height="8" x="14" y="280" d="m 14.000001,280 h 58 v 8 h -58 z"/><path style="display:inline;opacity:1;fill:url(#linearGradient9244);fill-opacity:1;fill-rule:nonzero;stroke:#000;stroke-width:0;stroke-linecap:round;stroke-linejoin:round;stroke-miterlimit:18.2;stroke-dasharray:none;stroke-dashoffset:0;stroke-opacity:1;paint-order:markers fill stroke" id="path9156" width="58" height="76" x="14" y="204" d="m 14.000001,204 h 58 v 76 h -58 z"/><path style="display:inline;opacity:1;fill:url(#radialGradient9246);fill-opacity:1;fill-rule:nonzero;stroke:#000;stroke-width:0;stroke-linecap:round;stroke-linejoin:round;stroke-miterlimit:18.2;stroke-dasharray:none;stroke-dashoffset:0;stroke-opacity:1;paint-order:markers fill stroke" id="path9158" width="58" height="8" x="14" y="196" d="m 14.000001,196 h 58 v 8 h -58 z"/></g><g id="g6418"><path style="opacity:1;fill:#2ec27e;fill-opacity:1;fill-rule:nonzero;stroke:none;stroke-width:0;stroke-linecap:round;stroke-linejoin:round;stroke-miterlimit:18.2;stroke-dasharray:none;stroke-dashoffset:0;stroke-opacity:1;paint-order:markers fill stroke" id="path4743" width="58" height="92" x="33" y="196" d="m 41,196 h 42 a 8,8 45 0 1 8,8 v 76.00001 a 8,8 135 0 1 -8,8 H 41 a 8,8 45 0 1 -8,-8 V 204 a 8,8 135 0 1 8,-8 z"/><g id="g6656"><path style="opacity:1;fill:#fff;fill-opacity:1;fill-rule:nonzero;stroke:none;stroke-width:0;stroke-linecap:round;stroke-linejoin:round;stroke-miterlimit:18.2;stroke-dasharray:none;stroke-dashoffset:0;stroke-opacity:1;paint-order:markers fill stroke" id="path4749" width="40" height="11" x="42" y="269" d="m 44,269 h 36 a 2,2 45 0 1 2,2 l 0,7 a 2,2 135 0 1 -2,2 H 44 a 2,2 45 0 1 -2,-2 v -7 a 2,2 135 0 1 2,-2 z"/><rect style="display:inline;fill:#000;fill-opacity:1;fill-rule:nonzero;stroke:none;stroke-width:0;stroke-linecap:round;stroke-linejoin:round;stroke-miterlimit:18.2;stroke-dasharray:none;stroke-dashoffset:0;stroke-opacity:1;paint-order:markers fill stroke;enable-background:new" id="rect4755" width="2" height="10" x="45" y="269.5"/><rect style="display:inline;fill:#000;fill-opacity:1;fill-rule:nonzero;stroke:none;stroke-width:0;stroke-linecap:round;stroke-linejoin:round;stroke-miterlimit:18.2;stroke-dasharray:none;stroke-dashoffset:0;stroke-opacity:1;paint-order:markers fill stroke;enable-background:new" id="rect4757" width="4" height="10" x="49" y="269.5"/><rect style="display:inline;fill:#000;fill-opacity:1;fill-rule:nonzero;stroke:none;stroke-width:0;stroke-linecap:round;stroke-linejoin:round;stroke-miterlimit:18.2;stroke-dasharray:none;stroke-dashoffset:0;stroke-opacity:1;paint-order:markers fill stroke;enable-background:new" id="rect4759" width="4" height="10" x="55" y="269.5"/><rect style="display:inline;fill:#000;fill-opacity:1;fill-rule:nonzero;stroke:none;stroke-width:0;stroke-linecap:round;stroke-linejoin:round;stroke-miterlimit:18.2;stroke-dasharray:none;stroke-dashoffset:0;stroke-opacity:1;paint-order:markers fill stroke;enable-background:new" id="rect4761" width="2" height="10" x="63" y="269.5"/><rect style="display:inline;fill:#000;fill-opacity:1;fill-rule:nonzero;stroke:none;stroke-width:0;stroke-linecap:round;stroke-linejoin:round;stroke-miterlimit:18.2;stroke-dasharray:none;stroke-dashoffset:0;stroke-opacity:1;paint-order:markers fill stroke;enable-background:new" id="rect4763" width="2" height="10" x="67" y="269.5"/><rect style="display:inline;fill:#000;fill-opacity:1;fill-rule:nonzero;stroke:none;stroke-width:0;stroke-linecap:round;stroke-linejoin:round;stroke-miterlimit:18.2;stroke-dasharray:none;stroke-dashoffset:0;stroke-opacity:1;paint-order:markers fill stroke;enable-background:new" id="rect4765" width="2" height="10" x="71" y="269.5"/><rect style="display:inline;fill:#000;fill-opacity:1;fill-rule:nonzero;stroke:none;stroke-width:0;stroke-linecap:round;stroke-linejoin:round;stroke-miterlimit:18.2;stroke-dasharray:none;stroke-dashoffset:0;stroke-opacity:1;paint-order:markers fill stroke;enable-background:new" id="rect4767" width="4" height="10" x="75" y="269.5"/></g><path style="opacity:1;fill:#33d17a;fill-opacity:1;fill-rule:nonzero;stroke:none;stroke-width:0;stroke-linecap:round;stroke-linejoin:round;stroke-miterlimit:18.2;stroke-dasharray:none;stroke-dashoffset:0;stroke-opacity:1;paint-order:markers fill stroke" id="path4769" width="48" height="11" x="38" y="201" d="m 40,201 h 44 a 2,2 45 0 1 2,2 v 7 a 2,2 135 0 1 -2,2 l -44,0 a 2,2 45 0 1 -2,-2 v -7 a 2,2 135 0 1 2,-2 z"/><path style="opacity:1;fill:#33d17a;fill-opacity:1;fill-rule:nonzero;stroke:none;stroke-width:0;stroke-linecap:round;stroke-linejoin:round;stroke-miterlimit:18.2;stroke-dasharray:none;stroke-dashoffset:0;stroke-opacity:1;paint-order:markers fill stroke" id="path4781" width="30.13" height="22" x="55.87" y="215" d="m 57.870403,215 26.129599,0 a 2,2 45 0 1 2,2 v 18 a 2,2 135 0 1 -2,2 l -26.129599,0 a 2,2 45 0 1 -2,-2 v -18 a 2,2 135 0 1 2,-2 z"/><path style="opacity:1;fill:#33d17a;fill-opacity:1;fill-rule:nonzero;stroke:none;stroke-width:0;stroke-linecap:round;stroke-linejoin:round;stroke-miterlimit:18.2;stroke-dasharray:none;stroke-dashoffset:0;stroke-opacity:1;paint-order:markers fill stroke" id="path4787" width="48" height="22" x="38" y="240" d="m 40,240 h 44 a 2,2 45 0 1 2,2 l 0,18 a 2,2 135 0 1 -2,2 H 40 a 2,2 45 0 1 -2,-2 v -18 a 2,2 135 0 1 2,-2 z"/></g><g id="g9152" transform="translate(-1.0000005)"><path style="display:inline;opacity:1;fill:url(#radialGradient8781);fill-opacity:1;fill-rule:nonzero;stroke:#000;stroke-width:0;stroke-linecap:round;stroke-linejoin:round;stroke-miterlimit:18.2;stroke-dasharray:none;stroke-dashoffset:0;stroke-opacity:1;paint-order:markers fill stroke" id="path8779" width="58" height="8" x="14" y="280" d="m 14.000001,280 h 58 v 8 h -58 z"/><path style="display:inline;opacity:1;fill:url(#linearGradient7557);fill-opacity:1;fill-rule:nonzero;stroke:#000;stroke-width:0;stroke-linecap:round;stroke-linejoin:round;stroke-miterlimit:18.2;stroke-dasharray:none;stroke-dashoffset:0;stroke-opacity:1;paint-order:markers fill stroke" id="path7941" width="58" height="76" x="14" y="204" d="m 14.000001,204 h 58 v 76 h -58 z"/><path style="display:inline;opacity:1;fill:url(#radialGradient8401);fill-opacity:1;fill-rule:nonzero;stroke:#000;stroke-width:0;stroke-linecap:round;stroke-linejoin:round;stroke-miterlimit:18.2;stroke-dasharray:none;stroke-dashoffset:0;stroke-opacity:1;paint-order:markers fill stroke" id="path8397" width="58" height="8" x="14" y="196" d="m 14.000001,196 h 58 v 8 h -58 z"/></g><g id="g6132"><path style="opacity:1;fill:#3584e4;fill-opacity:1;fill-rule:nonzero;stroke:none;stroke-width:0;stroke-linecap:round;stroke-linejoin:round;stroke-miterlimit:18.2;stroke-dasharray:none;stroke-dashoffset:0;stroke-opacity:1;paint-order:markers fill stroke" id="rect84" width="58" height="92" x="8" y="196" d="m 16,196 h 42 a 8,8 45 0 1 8,8 v 76.00001 a 8,8 135 0 1 -8,8 H 16 a 8,8 45 0 1 -8,-8 V 204 a 8,8 135 0 1 8,-8 z"/><g id="g6115"><path style="opacity:1;fill:#fff;fill-opacity:1;fill-rule:nonzero;stroke:none;stroke-width:0;stroke-linecap:round;stroke-linejoin:round;stroke-miterlimit:18.2;stroke-dasharray:none;stroke-dashoffset:0;stroke-opacity:1;paint-order:markers fill stroke" id="rect2892" width="40" height="11" x="17" y="269" d="m 19,269 h 36 a 2,2 45 0 1 2,2 v 7 a 2,2 135 0 1 -2,2 H 19 a 2,2 45 0 1 -2,-2 v -7 a 2,2 135 0 1 2,-2 z"/><rect style="display:inline;fill:#000;fill-opacity:1;fill-rule:nonzero;stroke:none;stroke-width:0;stroke-linecap:round;stroke-linejoin:round;stroke-miterlimit:18.2;stroke-dasharray:none;stroke-dashoffset:0;stroke-opacity:1;paint-order:markers fill stroke;enable-background:new" id="rect4525" width="4" height="10" x="46" y="269.5"/><rect style="display:inline;fill:#000;fill-opacity:1;fill-rule:nonzero;stroke:none;stroke-width:0;stroke-linecap:round;stroke-linejoin:round;stroke-miterlimit:18.2;stroke-dasharray:none;stroke-dashoffset:0;stroke-opacity:1;paint-order:markers fill stroke;enable-background:new" id="rect4523" width="2" height="10" x="52" y="269.5"/><rect style="display:inline;fill:#000;fill-opacity:1;fill-rule:nonzero;stroke:none;stroke-width:0;stroke-linecap:round;stroke-linejoin:round;stroke-miterlimit:18.2;stroke-dasharray:none;stroke-dashoffset:0;stroke-opacity:1;paint-order:markers fill stroke;enable-background:new" id="rect4521" width="2" height="10" x="42" y="269.5"/><rect style="display:inline;fill:#000;fill-opacity:1;fill-rule:nonzero;stroke:none;stroke-width:0;stroke-linecap:round;stroke-linejoin:round;stroke-miterlimit:18.2;stroke-dasharray:none;stroke-dashoffset:0;stroke-opacity:1;paint-order:markers fill stroke;enable-background:new" id="rect4519" width="2" height="10" x="38" y="269.5"/><rect style="display:inline;fill:#000;fill-opacity:1;fill-rule:nonzero;stroke:none;stroke-width:0;stroke-linecap:round;stroke-linejoin:round;stroke-miterlimit:18.2;stroke-dasharray:none;stroke-dashoffset:0;stroke-opacity:1;paint-order:markers fill stroke;enable-background:new" id="rect4517" width="4" height="10" x="30" y="269.5"/><rect style="display:inline;fill:#000;fill-opacity:1;fill-rule:nonzero;stroke:none;stroke-width:0;stroke-linecap:round;stroke-linejoin:round;stroke-miterlimit:18.2;stroke-dasharray:none;stroke-dashoffset:0;stroke-opacity:1;paint-order:markers fill stroke;enable-background:new" id="rect4515" width="4" height="10" x="24" y="269.5"/><rect style="display:inline;fill:#000;fill-opacity:1;fill-rule:nonzero;stroke:none;stroke-width:0;stroke-linecap:round;stroke-linejoin:round;stroke-miterlimit:18.2;stroke-dasharray:none;stroke-dashoffset:0;stroke-opacity:1;paint-order:markers fill stroke;enable-background:new" id="rect3611-5" width="2" height="10" x="20" y="269.5"/></g><path style="opacity:1;fill:#62a0ea;fill-opacity:1;fill-rule:nonzero;stroke:none;stroke-width:0;stroke-linecap:round;stroke-linejoin:round;stroke-miterlimit:18.2;stroke-dasharray:none;stroke-dashoffset:0;stroke-opacity:1;paint-order:markers fill stroke" id="path4655" width="48" height="22" x="13" y="240" d="m 15,240 h 44 a 2,2 45 0 1 2,2 v 18 a 2,2 135 0 1 -2,2 H 15 a 2,2 45 0 1 -2,-2 v -18 a 2,2 135 0 1 2,-2 z"/><path style="opacity:1;fill:#62a0ea;fill-opacity:1;fill-rule:nonzero;stroke:none;stroke-width:0;stroke-linecap:round;stroke-linejoin:round;stroke-miterlimit:18.2;stroke-dasharray:none;stroke-dashoffset:0;stroke-opacity:1;paint-order:markers fill stroke" id="path4649" width="15" height="22" x="46" y="215" d="m 48,215 h 11 a 2,2 45 0 1 2,2 v 18 a 2,2 135 0 1 -2,2 H 48 a 2,2 45 0 1 -2,-2 v -18 a 2,2 135 0 1 2,-2 z"/><path style="opacity:1;fill:#62a0ea;fill-opacity:1;fill-rule:nonzero;stroke:none;stroke-width:0;stroke-linecap:round;stroke-linejoin:round;stroke-miterlimit:18.2;stroke-dasharray:none;stroke-dashoffset:0;stroke-opacity:1;paint-order:markers fill stroke" id="path4643" width="30" height="22" x="13" y="215" d="m 15,215 h 26 a 2,2 45 0 1 2,2 l 0,18 a 2,2 135 0 1 -2,2 l -26,0 a 2,2 45 0 1 -2,-2 v -18 a 2,2 135 0 1 2,-2 z"/><path style="opacity:1;fill:#62a0ea;fill-opacity:1;fill-rule:nonzero;stroke:none;stroke-width:0;stroke-linecap:round;stroke-linejoin:round;stroke-miterlimit:18.2;stroke-dasharray:none;stroke-dashoffset:0;stroke-opacity:1;paint-order:markers fill stroke" id="path4601" width="48" height="11" x="13" y="201" d="m 15,201 h 44 a 2,2 45 0 1 2,2 v 7 a 2,2 135 0 1 -2,2 l -44,0 a 2,2 45 0 1 -2,-2 l 0,-7 a 2,2 135 0 1 2,-2 z"/></g></g></svg>